<?xml version="1.0" encoding="UTF-8"?>
<svg style="height:512px;width:512px" version="1.1" viewBox="0 0 512 512" xmlns="http://www.w3.org/2000/svg"><g class="" transform="matrix(.72 0 0 .72 72 73)" stroke="#000"><path d="m166 16c-25 .37-48 8.5-68 17 84 7.9 157 62 119 123-2.2 3-5.1 7.6-5.9 9.7-.93 2.4-.18 5.3 2.7 9.6 8.8 11 22 18 35 20 12 1.4 14-2 19-10 22-8.6 58 12 65 29 1.3-14 6.5-30 15-45 6.7-12 15-22 23-29-20 7.3-30-6.8-39-34-11-44-93-83-166-91zm227 131c-9.6 6.1-20 17-29 32-8.4 14-13 29-13 41-.47 11 2.7 18 6.7 20 4 2.3 11 1.8 21-4.3 9.6-6.1 20-17 29-32s13-29 13-41c.47-11-2.7-18-6.7-20-6.7-3-15 .83-21 4.3zm-195 38c-118 182-78 108-177 278 12 9.2 25 19 55 29 35-28 38-87 173-278-11-1.1-22-5.1-30-10-8.4-4.9-16-11-21-19-.016-.024-.046-.04-.062-.063zm293 72-110 22 51 16 31 149 18-3.8-31-149zm-294 64 51-15 68 68-23 85 18 4.9 20-75 25 24 13-13-32-32 14-52 52-13-109-29 39 37-11 41-60-60 15-51c-24 28-53 54-80 80z" stroke="#000"/></g></svg>
